<svg xmlns="http://www.w3.org/2000/svg" viewBox="0 0 1651.75891 1919.25946"><defs><style>.cls-1{fill:#6e6e6e;}</style></defs><g id="Capa_2" data-name="Capa 2"><path d="M296.4927,1919.61975c-30.38807-8.64519-60.6991-17.19669-86.33743-37.1746-47.07867-36.68465-73.71365-84.23115-74.90141-144.14372-2.10415-106.13767-2.35863-212.0533,25.82283-315.98792,42.376-156.28476,121.71575-289.94573,241.07973-399.28594,65.85394-60.32394,150.46831-66.56508,228.08894-21.60132q329.58888,190.923,659.53463-.502c29.715-17.32482,61.01312-28.477,95.38539-29.13011,50.22817-.9543,94.29265,15.69387,131.29472,49.76672,132.60768,122.11009,216.15347,271.9367,253.13118,448.16631,19.55533,93.19734,18.01564,187.62067,14.27342,281.72151-3.17193,79.76384-71.20445,150.857-150.30323,164.59614-3.55.61637-7.62845-.212-10.05714,3.5749Z" transform="translate(-134.41678 -0.36029)"/><path d="M1009.3433,3.42406c192.36573,14.9753,364.55711,169.85823,404.39547,363.74624,51.63745,251.31239-100.94746,490.205-351.38752,550.14544-255.33513,61.11207-520.36584-117.23148-559.90956-376.7726C464.15872,289.27762,619.43747,63.47253,867.69572,9.61,884.592,5.94417,901.73525,3.417,918.76369.3603l67.47517,0C993.46612,4.95782,1001.94639.106,1009.3433,3.42406Z" transform="translate(-134.41678 -0.36029)"/><path class="cls-1" d="M1009.3433,3.42406c-8.009,1.29767-15.97648,2.28257-23.10444-3.06377h22.49172A6.39742,6.39742,0,0,1,1009.3433,3.42406Z" transform="translate(-134.41678 -0.36029)"/></g></svg>