<svg width="200" height="200" xmlns="http://www.w3.org/2000/svg" viewBox="0 0 1921 1921"><defs><style>.cls-1{fill:#e5e5e5;stroke:#1d1d1b;stroke-miterlimit:10;}.cls-2{fill:#959595;}</style></defs><g id="Capa_1" data-name="Capa 1"><rect class="cls-1" x="0.5" y="0.5" width="1920" height="1920"/></g><g id="Capa_3" data-name="Capa 3"><path class="cls-2" d="M907.15779,3.452a14.64684,14.64684,0,0,1,.38763-3.09169h22.49111C922.91672,5.13861,915.0424,4.33332,907.15779,3.452Z"/><path class="cls-2" d="M1012.50394.36034a14.975,14.975,0,0,1,.39008,3.09193c-7.88666.89019-15.75857,1.67206-22.88119-3.09193Z"/><path d="M1685.09082,900.23718c-.06787-86.84289-60.82165-161.5636-145.69775-181.242-22.86792-5.302-45.91516-4.06592-68.974-4.34247-24.0282-.28809-25.09412-1.20721-25.12073-25.61926q-.119-109.58661.00293-219.17346a387.32788,387.32788,0,0,0-6.89966-70.71161c-26.8977-145.84-104.32007-257.87488-230.12573-335.25281-58.95532-36.261-122.85547-61.35169-193.94129-61.60114-8.092-.92334-16.47857,1.98084-24.32177-1.93408H930.03656c-7.90137,3.91217-16.33881,1.01776-24.46722,1.93115-23.77448.20942-47.29316,2.58881-70.30927,8.83985C621.33466,69.2323,474.78766,261.0946,474.78064,483.05048c-.002,62.44183.197,124.88446-.06354,187.32519-.20392,48.861,5.77069,45.6518-43.90045,43.92475-110.25586-3.83356-197.59149,85.75366-196.67291,197.26763q3.36364,408.342-.20636,816.72455c-.77509,84.04822,60.2666,185.55091,160.061,191.33435H1526.051c16.80053-3.94262,34.3833-3.52368,50.48889-11.62915,70.93579-35.69983,108.125-93.33886,108.33874-172.27942Q1686.00953,1317.98029,1685.09082,900.23718ZM1055.98,1326.22925c-12.5957,9.2362-16.96167,18.302-16.69311,33.59717q1.43042,81.4464.005,162.93493c-.7323,41.14051-31.24066,72.32288-72.67706,76.84168-37.01715,4.03662-75.37873-22.52808-83.92438-60.07508-5.42853-23.85119-1.65015-48.53161-2.27869-72.83215-.25824-9.98242-.04266-19.977-.04266-29.96619,0-26.84582-.47784-53.70385.21588-80.53173.31366-12.12732-2.54828-20.05433-13.38769-27.72083-54.39484-38.47168-78.41706-104.10815-62.40625-166.1438,17.16626-66.51221,69.0039-112.44324,136.51153-120.95666,70.7002-8.91614,139.11322,31.25329,166.48651,97.75451C1135.49072,1206.42944,1114.945,1282.99194,1055.98,1326.22925Zm206.87817-605.75147c-101.11608-.74139-202.24023-.39251-303.36187-.39251-100.49738,0-200.99774-.38019-301.489.40509-15.28308.11944-17.98913-4.63208-17.85669-18.5857.68116-71.77838.06189-143.56775.3797-215.35113.74585-168.48157,111.656-297.48541,277.97663-323.71179,163.31439-25.75245,330.88568,97.40741,356.4953,261.39453,6.70092,42.90857,3.98608,85.93066,4.45581,128.91986.54565,49.93109-.39551,99.88165.47,149.80365C1280.16431,716.588,1277.30493,720.58368,1262.85815,720.47778Z"/></g></svg>